<?xml version="1.0" encoding="utf-8"?>
<!-- Generator: Adobe Illustrator 15.1.0, SVG Export Plug-In . SVG Version: 6.00 Build 0)  -->
<!DOCTYPE svg PUBLIC "-//W3C//DTD SVG 1.1//EN" "http://www.w3.org/Graphics/SVG/1.1/DTD/svg11.dtd">
<svg version="1.1" id="Layer_1" xmlns="http://www.w3.org/2000/svg" xmlns:xlink="http://www.w3.org/1999/xlink" x="0px" y="0px"
	 width="150px" height="50px" viewBox="0 0 150 50" enable-background="new 0 0 150 50" xml:space="preserve">
<g id="d20">
	<polygon id="Bottom_Right" fill="#42274C" points="75.287,46.811 74.788,39.608 91.589,37.335 	"/>
	<polygon id="Bottom_Left" fill="#42274C" points="74.289,46.811 73.956,39.608 57.489,37.335 	"/>
	<polygon id="Middle_Far_Right" fill="#583466" points="86.876,18.039 93.248,34.175 92.754,15.378 	"/>
	<polygon id="Middle_Second_Right" fill="#6E417F" points="86.267,18.705 75.058,38.777 93.248,36.17 	"/>
	<polygon id="Center" fill="#854F99" points="62.424,18 74.234,37.906 85.49,18 	"/>
	<polygon id="Middle_Second_Left" fill="#6E417F" points="73.458,38.777 61.869,18.705 55.869,36.061 	"/>
	<polygon id="Middle_Far_Left" fill="#583466" points="55.869,33.676 61.204,18.039 56.38,15.766 	"/>
	<polygon id="Top_Right" fill="#42274C" points="76.341,5.064 86.377,17.284 92.088,14.491 	"/>
	<polygon id="Top_Middle" fill="#6E417F" points="62.666,17 85.302,17 74.234,3.497 	"/>
	<polygon id="Top_Left" fill="#42274C" points="56.879,15.045 61.592,17.318 71.461,5.453 	"/>
	<g id="H">
		<image overflow="visible" width="49" height="50" xlink:href="F13CDF4D.png"  transform="matrix(1 0 0 1 89 0)">
		</image>
		<g>
			<g>
				<path fill="#FFFFFF" d="M128.24,38.022l-1.205,1.048l-0.377,0.769l-0.323-0.206l-0.296,0.162l-0.277,0.509l-1.282,0.584
					l-0.09-0.09l-0.534-0.165l-0.045-0.606l0.09-0.578l0.444-0.817l-0.166-0.697l0.12-0.58l0.233-1.375l0.319-1.186l-0.184-1.538
					l-0.046-0.462l0.601-0.443c0.014-0.152,0.023-0.35,0.023-0.582c0-0.45-0.118-0.934-0.35-1.463l0.394-1.229l-0.482-0.449
					l0.276-1.232l-0.232-0.139l0.14-3.91l-0.278-0.229l-0.233-0.956l-0.181,0.184c-0.277,0-0.474,0.022-0.568,0.072
					c-0.104,0.045-0.247,0.175-0.431,0.395l-0.583,0.628l-0.901-0.368c-0.619,0.183-0.982,0.274-1.094,0.274
					c0.018,0-0.17-0.023-0.574-0.091c-0.421-0.326-0.78-0.488-1.09-0.488c-0.05,0-0.08,0.004-0.103,0.014
					c-0.027,0.004-0.055,0.017-0.081,0.031l-2.417,0.216l-2.435-0.306l-1.995,0.162l-0.996-0.255l-1.507,0.444l-2.34-0.26
					l-0.606,0.072l-0.718-0.539l-0.228,0.583l-2.857-0.045c-0.385,0.371-0.582,0.718-0.582,1.05l0.287,1.832
					c0.044,0.171,0.066,0.426,0.066,0.772c0,0.31-0.089,0.609-0.256,0.907l0.135,1.438c-0.214,0.143-0.345,0.278-0.39,0.406
					c-0.049,0.137-0.071,0.333-0.071,0.598c0.125,0.196,0.35,0.336,0.673,0.417l0.049,1.001v3.044v0.138l0.045,0.588
					c0,0.141-0.104,0.274-0.306,0.413l0.055,0.49l0.345,1.426l0.045,0.484c0,0.68-0.314,1.182-0.95,1.511l-1.185,0.582l-1.045,0.606
					l-0.622,0.3l-0.141-0.21h-0.232c-0.169-0.343-0.256-0.651-0.256-0.93c0-0.327,0.042-0.547,0.121-0.678l0.508-1.182l0.232-0.817
					l0.345-0.139l0.045-0.768l-0.39-0.376c0.229-0.43,0.345-0.687,0.345-0.767c0-0.071-0.116-0.314-0.345-0.723l-0.05-0.413
					l0.185-3.864l-0.233-1.045c0-0.358,0.139-0.632,0.398-0.816l0.323-0.276c0.076-0.078,0.145-0.257,0.189-0.535
					c-0.48-0.169-0.724-0.462-0.724-0.86v-0.095l0.166-1.766l-0.305-0.745v-2.677l-0.094-1.327l0.045-0.718l-0.364,0.045
					l-0.099,0.098l-0.179-0.631l0.179,0.184l0.099-0.884c0.571-0.323,0.853-0.654,0.853-0.996c0-0.484-0.313-0.771-0.951-0.866
					l-0.345-1.623v-0.377l-0.138-1.856v-1.493l0.581-0.233l0.763-0.556l1.23-0.583l0.903-0.372l0.691,0.282
					c0,0.292,0.108,0.61,0.306,0.946c-0.234,0.251-0.368,0.458-0.409,0.614c-0.035,0.148-0.079,0.538-0.129,1.157l-0.045,0.56
					l0.444,1.628l0.094,0.951h-0.206l-0.423,1.094l0.323,0.372l-0.09,0.494l-0.233,0.412l-0.232,0.493l0.095,0.512l0.183,0.395
					c0.126,0.247,0.188,0.753,0.188,1.511l0.534,0.143l4.13,0.233l0.623,0.44l1.553,0.183l0.484-0.044l0.143-0.233l1.601,0.095
					l0.206,0.044c0.216-0.189,0.435-0.282,0.65-0.282l0.488,0.049v0.189l0.278,0.183l0.529-0.044l2.557-0.045l0.95-0.094
					l0.856,0.278c0.278-0.404,0.609-0.606,1-0.606h0.09l1.184,0.09l2.246-0.202l1.323,0.067l0.462-0.116l0.166-0.511l0.417-1.049
					l-0.094-2.673l0.094-0.556l-0.327-0.538l-0.579-0.583v-1l-0.139-1.045L124,12.301c-0.189-0.637-0.283-1.135-0.283-1.489
					c0-0.296,0.094-0.466,0.283-0.516l0.622-0.095l0.718-0.529h0.556c0.234-0.062,0.529-0.283,0.906-0.654l0.673,0.327l0.229,1.094
					l0.184,0.627l-0.663,2.466l0.157,1.278l-0.09,0.533h-0.256c-0.22,0-0.328,0.157-0.328,0.466c0.081,0.188,0.234,0.333,0.463,0.44
					l0.444,0.237l0.138,0.628l0.135,0.951l-0.045,0.282l-0.367,0.718l0.09,4.232l-0.09,3.63l0.367,0.56
					c-0.121,0.561-0.183,0.986-0.183,1.278v0.071v0.094v0.278v0.561c-0.323,0.336-0.489,0.583-0.489,0.717
					c0,0.062,0.018,0.094,0.054,0.094l0.618,1.096l-0.139,3.16L128.24,38.022z"/>
			</g>
		</g>
	</g>
	<g id="D">
		<image overflow="visible" width="54" height="50" xlink:href="F13CDF4F.png"  transform="matrix(1 0 0 1 7 0)">
		</image>
		<g>
			<g>
				<path fill="#FFFFFF" d="M51.095,22.199l-0.23,0.983l0.091,1.123c-0.044,0.574-0.219,1.013-0.524,1.301l-0.367,0.482
					l-0.936,0.227c-0.093,0.088-0.184,0.313-0.277,0.667l0.093,0.088h0.228l-0.137-0.296l0.458,0.346l-0.23,0.319l-0.135,0.571
					l-0.37,0.595l-0.524,0.753l-1.784,1.122l-0.892,1.418l-0.779,0.548l-1.555,1.649c-0.396,0.347-0.741,0.562-1.029,0.637
					l-1.692,0.571l-0.414,0.188c0,0.29-0.078,0.51-0.228,0.661l-0.482,0.182l-2.677,1.306l-1.623,1.057
					c-0.536,0.338-1.053,0.501-1.555,0.501c-0.186,0-0.42-0.075-0.708-0.229c-0.292,0.18-0.878,0.42-1.766,0.705l-1.324,0.417
					l-0.894,0.181l-1.875,0.134l-0.502,0.094l-1.212-0.454c-0.61,0.334-1.19,0.52-1.738,0.542l-0.14-0.182
					c-0.409,0-0.754-0.116-1.026-0.36l-0.847-0.094v0.548c-0.522,0.291-1.055,0.438-1.604,0.438c-0.35,0-0.708-0.044-1.073-0.137
					c-1.282-0.351-2.014-0.528-2.196-0.528c-0.352,0-0.526-0.061-0.526-0.181v-0.14l0.342-0.389l0.549-0.139
					c0.533-0.146,0.847-0.226,0.938-0.226l0.184,0.044l0.387-0.411c0.276-0.3,0.414-0.511,0.414-0.615v-0.711l0.274-0.982
					l0.044-0.461v-0.27l0.298-0.21c-0.23-0.241-0.342-0.525-0.342-0.849l0.112-1.348l0.049-0.615l0.5-0.504
					c-0.182-0.273-0.272-0.484-0.272-0.616l-0.046-0.733l-0.298-0.569l0.068-1.308v-1.6l0.367-0.759
					c0.06-0.242,0.091-0.411,0.091-0.504c0-0.257-0.175-0.509-0.526-0.751l-0.044-0.89V24.12c0-0.181,0.161-0.389,0.479-0.62
					l0.044-1.257h-0.571l-0.137-0.477l0.093-1.217l-0.23-1.782l0.182-0.505l-0.321-0.663l-0.044-2.243l-0.617-0.708l0.526-1.031
					l0.047-0.34l-0.139-1.305l-0.044-0.756c-0.336-0.044-0.648-0.137-0.938-0.274l-0.62-0.23v-0.659l0.801-0.323h1.785l0.984-0.433
					c0.29-0.124,0.694-0.182,1.212-0.182l1.511-0.049l0.823,0.274l0.573-0.182l0.412,0.248h0.754l0.894,0.049l0.845,0.092h0.046
					l0.754-0.141l1.53,0.504l1.832,0.053l0.619,0.27l2.563,0.301l1.554,0.455l1.827,0.323l1.259,0.434L40,11.928l-0.093,0.478
					l0.274,0.278L40,12.954l0.09,0.098l-0.137,0.181l0.137-0.044l0.798-0.279l0.642-0.182l0.575,0.182l0.843,0.23l0.506,0.34
					l0.044,0.505l0.204,0.048l0.871-0.048c0.29,0,0.618,0.265,0.985,0.8h0.34c0.398,0,0.994,0.283,1.786,0.85
					c0.855,0.58,1.572,1.265,2.152,2.058l-0.343,0.317l0.066,0.346l0.277,0.456l0.458,0.318c0.152,0.183,0.296,0.536,0.433,1.057
					c-0.29,0.121-0.433,0.274-0.433,0.457c0,0.092,0.015,0.155,0.045,0.181l0.662,0.987C51.063,21.934,51.095,22.057,51.095,22.199z
					 M46.932,21.718c-0.292-0.121-0.476-0.24-0.55-0.359c-0.078-0.11-0.128-0.319-0.16-0.624l-0.186-0.048v-0.271
					c0-0.159-0.089-0.389-0.272-0.711l-0.435-0.709l0.046-0.229l-0.458-0.411l-1.121-0.851c-0.122-0.07-0.244-0.172-0.365-0.292
					c-0.122-0.124-0.263-0.288-0.422-0.491c-0.159-0.208-0.341-0.433-0.54-0.677h-0.502c-0.38,0-0.694-0.035-0.938-0.093
					l-2.198-1.167l-0.98-0.182l-0.62-0.274l-0.526-0.115l-0.093-0.504c-0.409-0.093-0.652-0.137-0.729-0.137
					c-0.153,0-0.343,0.093-0.573,0.274c-0.486-0.257-0.876-0.412-1.166-0.456c-0.323-0.062-0.546-0.106-0.674-0.128
					c-0.13-0.022-0.23-0.058-0.299-0.115c-0.068-0.049-0.157-0.133-0.261-0.239l-0.369-0.363c-0.332,0.181-0.662,0.27-0.982,0.27
					c-0.396,0-0.708-0.088-0.938-0.27l-0.549-0.389l-1.418-0.23l-3.274-0.412l-1.599,0.137l-0.321-0.186l-0.229,0.186l-0.25,0.456
					l-0.505-0.226l-0.09,0.664c-0.03,0.655-0.115,1.15-0.252,1.486l0.113,0.478c0.214,0.734,0.321,1.15,0.321,1.256l-0.047,0.416
					l-0.274-0.181h-0.159c0.031,0.606,0.159,1.098,0.389,1.464v0.637l-0.295-0.044c-0.155,0.137-0.29,0.203-0.415,0.203h-0.227
					l-0.093,0.46l0.32,0.407c0.321,0.125,0.534,0.235,0.642,0.336c0.107,0.098,0.16,0.252,0.16,0.469
					c-0.321,0.138-0.48,0.297-0.48,0.482c0,0.116,0.016,0.195,0.046,0.227l0.479,1.124l-0.137,4.069l0.184,0.567l-0.228,1.172
					l0.181,0.182l-0.093,0.849l0.093,1.258c0,0.322-0.05,0.544-0.159,0.661c-0.106,0.126-0.351,0.298-0.732,0.527l0.091,0.686
					l0.8,0.484v0.548l-0.093,2.766c0.033,0.14,0.08,0.344,0.151,0.617c0.068,0.275,0.144,0.541,0.219,0.803
					c0.09,0.189,0.135,0.35,0.135,0.505c0,0.072-0.06,0.238-0.184,0.476h-0.409c-0.306,0-0.558,0.256-0.757,0.761
					c1.007,0.184,1.754,0.271,2.241,0.271l3.044-0.044l1.077,0.088l3.431-0.979l0.523-0.048L34.554,37l1.739-0.711l0.71-0.273
					l0.502-0.436l1.694-0.639l1.305-1.286l0.524-0.224l0.276-0.319l0.272-0.848l0.938-0.528l0.524-0.777l0.987-1.141l0.183-0.555
					c0.474,0,0.779-0.026,0.914-0.088c0.135-0.062,0.206-0.178,0.206-0.34c0-0.216-0.197-0.369-0.595-0.459
					c0.489-0.487,0.85-1.059,1.088-1.703c0.235-0.653,0.414-1.52,0.538-2.599C46.45,23.252,46.64,22.464,46.932,21.718z"/>
			</g>
		</g>
	</g>
	<g id="Rune">
		<image overflow="visible" width="28" height="28" xlink:href="F13CDF4A.png"  transform="matrix(1 0 0 1 60 11)">
		</image>
		<g>
			<g>
				<path fill="#FFFFFF" d="M73.467,20.482c0.977-0.082,1.951,0.134,2.922,0.646l0.344-0.086c0.576-0.621,1.25-0.679,2.022-0.172
					c-0.13,0-0.288-0.015-0.476-0.045c-0.153-0.005-0.311,0.01-0.47,0.045c-0.245,0.181-0.516,0.453-0.814,0.814l-0.132,0.045
					l-0.04,0.127c-0.042,0.006-0.073,0.035-0.091,0.086c-0.039,0.005-0.066,0.035-0.082,0.085c-0.114,0.024-0.215,0.097-0.302,0.217
					l-0.258,0.041l-0.046,0.086c-0.286,0.03-0.586-0.012-0.9-0.127c0.007-0.03-0.007-0.059-0.041-0.086
					c-0.002-0.045,0.011-0.088,0.041-0.131c0.319,0.079,0.593-0.021,0.818-0.299c0.254-0.274,0.067-0.461-0.561-0.561
					c-1.728-0.44-3.131,0.104-4.211,1.633c-0.532,0.847-0.69,1.821-0.475,2.922c-0.006-0.736,0.209-1.452,0.647-2.149
					c1.324-1.643,2.871-1.758,4.641-0.343c0.104,0.15,0.204,0.338,0.304,0.561l0.081,0.041c-0.018,0.045-0.018,0.089,0,0.131
					l0.045,0.041c0.323,1.402-0.177,2.42-1.502,3.054c-0.467,0.238-0.982,0.238-1.547,0c-0.573-0.163-0.916-0.564-1.03-1.204
					c0.072,0.093,0.156,0.221,0.253,0.385c0.771,0.952,1.746,1.067,2.922,0.343c0.063-0.111,0.15-0.239,0.263-0.384
					c0.599-1.08,0.428-2.069-0.516-2.968c-1.231-0.648-2.392-0.477-3.483,0.515l0.045,0.086h-0.132c-0.78,1.191-0.78,2.467,0,3.827
					c1.113,1.079,2.403,1.365,3.869,0.859c1.381-0.485,2.326-1.517,2.835-3.094c-0.122,1.101-0.683,2.002-1.678,2.705l-0.126,0.218
					c-1.213,0.724-2.531,0.867-3.954,0.43c-1.863-0.694-2.809-2.084-2.837-4.171C69.979,22.469,71.195,21.094,73.467,20.482z"/>
			</g>
		</g>
	</g>
</g>
</svg>
