<?xml version="1.0" encoding="utf-8"?>
<!-- Generator: Adobe Illustrator 15.1.0, SVG Export Plug-In . SVG Version: 6.00 Build 0)  -->
<!DOCTYPE svg PUBLIC "-//W3C//DTD SVG 1.1//EN" "http://www.w3.org/Graphics/SVG/1.1/DTD/svg11.dtd">
<svg version="1.1" id="Layer_1" xmlns="http://www.w3.org/2000/svg" xmlns:xlink="http://www.w3.org/1999/xlink" x="0px" y="0px"
	 width="300px" height="300px" viewBox="0 0 300 300" enable-background="new 0 0 300 300" xml:space="preserve">
<image display="none" overflow="visible" width="516" height="594" id="Layer_0" xlink:href="29372C4B.png"  transform="matrix(0.4384 0 0 0.4384 33.8691 16.7793)">
</image>
<g id="d20">
	<polygon id="Bottom_Right" fill="#42274C" points="151.389,277.197 148.369,233.61 250.047,219.853 	"/>
	<polygon id="Bottom_Left" fill="#42274C" points="145.349,277.197 143.335,233.61 43.671,219.853 	"/>
	<polygon id="Middle_Far_Right" fill="#583466" points="221.523,103.074 260.091,200.725 257.094,86.966 	"/>
	<polygon id="Middle_Second_Right" fill="#6E417F" points="217.832,107.101 150,228.577 260.091,212.805 	"/>
	<polygon id="Center" fill="#854F99" points="73.537,105 145.013,225.47 213.134,105 	"/>
	<polygon id="Middle_Second_Left" fill="#6E417F" points="140.315,228.577 70.181,107.101 33.869,212.134 	"/>
	<polygon id="Middle_Far_Left" fill="#583466" points="33.869,197.704 66.154,103.074 36.959,89.315 	"/>
	<polygon id="Top_Right" fill="#42274C" points="157.765,24.55 218.503,98.5 253.066,81.597 	"/>
	<polygon id="Top_Middle" fill="#6E417F" points="75,99 212,99 145.013,17.279 	"/>
	<polygon id="Top_Left" fill="#42274C" points="39.979,84.953 68.503,98.711 128.234,26.899 	"/>
	<g id="H" display="none">
		
			<image display="inline" overflow="visible" width="59" height="61" xlink:href="29372C49.png"  transform="matrix(1 0 0 1 185 156)">
		</image>
		<g display="inline">
			<g>
				<path fill="#FFFFFF" d="M234.262,204.205l-1.59,1.381l-0.488,1.012l-0.428-0.274l-0.396,0.213l-0.367,0.675l-1.684,0.766
					l-0.121-0.121l-0.703-0.216l-0.061-0.798l0.121-0.766l0.582-1.073l-0.215-0.919l0.154-0.767l0.307-1.81l0.428-1.563
					l-0.246-2.022l-0.061-0.613l0.795-0.581c0.02-0.206,0.029-0.463,0.029-0.767c0-0.594-0.152-1.238-0.457-1.932l0.518-1.626
					l-0.641-0.582l0.365-1.626l-0.303-0.184l0.182-5.151l-0.367-0.307l-0.307-1.256l-0.242,0.245c-0.367,0-0.617,0.03-0.75,0.092
					c-0.131,0.062-0.32,0.234-0.564,0.521l-0.766,0.829l-1.191-0.491c-0.814,0.245-1.295,0.367-1.438,0.367
					c0.021,0-0.232-0.04-0.764-0.122c-0.549-0.429-1.027-0.644-1.434-0.644c-0.064,0-0.107,0.005-0.139,0.016
					c-0.031,0.01-0.068,0.025-0.107,0.045l-3.178,0.277l-3.211-0.398l-2.628,0.214l-1.313-0.338l-1.986,0.583l-3.088-0.338
					l-0.794,0.093l-0.947-0.705l-0.306,0.767l-3.76-0.062c-0.51,0.49-0.764,0.95-0.764,1.38l0.367,2.422
					c0.061,0.226,0.092,0.562,0.092,1.014c0,0.407-0.113,0.805-0.336,1.194l0.182,1.9c-0.285,0.185-0.457,0.362-0.519,0.537
					s-0.092,0.433-0.092,0.781c0.163,0.265,0.458,0.449,0.886,0.553l0.062,1.316v4.019v0.183l0.062,0.766
					c0,0.184-0.133,0.368-0.398,0.551l0.062,0.645l0.458,1.871l0.061,0.645c0,0.896-0.417,1.562-1.253,1.992l-1.559,0.766
					l-1.375,0.798l-0.825,0.397l-0.184-0.276h-0.306c-0.225-0.45-0.336-0.858-0.336-1.227c0-0.429,0.051-0.723,0.152-0.888
					l0.673-1.562l0.306-1.074l0.459-0.184l0.061-1.012l-0.52-0.491c0.305-0.572,0.459-0.909,0.459-1.011
					c0-0.103-0.154-0.42-0.459-0.952l-0.062-0.551l0.245-5.088l-0.307-1.381c0-0.471,0.174-0.827,0.52-1.072l0.429-0.368
					c0.102-0.102,0.184-0.339,0.244-0.705c-0.632-0.226-0.947-0.604-0.947-1.135v-0.123l0.214-2.329l-0.397-0.98v-3.526
					l-0.122-1.748l0.061-0.95l-0.488,0.062l-0.123,0.123l-0.244-0.828l0.244,0.245l0.123-1.165c0.754-0.43,1.131-0.869,1.131-1.318
					c0-0.634-0.418-1.012-1.254-1.135l-0.457-2.146v-0.49l-0.184-2.453v-1.962l0.764-0.307l1.008-0.736l1.621-0.765l1.191-0.491
					l0.916,0.368c0,0.388,0.133,0.808,0.398,1.256c-0.307,0.327-0.484,0.594-0.535,0.798c-0.051,0.203-0.107,0.715-0.168,1.532
					l-0.061,0.736l0.58,2.146l0.122,1.257h-0.274l-0.551,1.441l0.428,0.491l-0.121,0.644l-0.307,0.551l-0.306,0.645l0.122,0.674
					l0.244,0.521c0.164,0.327,0.246,0.991,0.246,1.992l0.702,0.185l5.44,0.308l0.825,0.582l2.048,0.244l0.642-0.061l0.183-0.307
					l2.109,0.123l0.275,0.061c0.285-0.245,0.57-0.367,0.855-0.367l0.642,0.062v0.245l0.366,0.244l0.703-0.061l3.361-0.062
					l1.256-0.122l1.131,0.368c0.363-0.532,0.803-0.798,1.312-0.798h0.121l1.559,0.123l2.965-0.275l1.744,0.091l0.609-0.153
					l0.215-0.674l0.549-1.38l-0.121-3.526l0.121-0.734l-0.428-0.705l-0.764-0.767v-1.318l-0.182-1.379l0.367-0.675
					c-0.246-0.839-0.367-1.492-0.367-1.963c0-0.389,0.121-0.612,0.367-0.675l0.824-0.122l0.947-0.705h0.732
					c0.307-0.082,0.703-0.367,1.191-0.858l0.889,0.429l0.305,1.441l0.244,0.827l-0.885,3.251l0.211,1.685l-0.121,0.705h-0.336
					c-0.285,0-0.428,0.205-0.428,0.613c0.104,0.246,0.307,0.44,0.611,0.583l0.58,0.307l0.186,0.828l0.182,1.256l-0.061,0.369
					l-0.488,0.95l0.121,5.579l-0.121,4.782l0.488,0.737c-0.164,0.736-0.246,1.299-0.246,1.685v0.092v0.123v0.369v0.736
					c-0.428,0.446-0.641,0.766-0.641,0.948c0,0.082,0.02,0.125,0.062,0.125l0.824,1.438l-0.184,4.171L234.262,204.205z"/>
			</g>
		</g>
	</g>
	<g id="D" display="none">
		
			<image display="inline" overflow="visible" width="66" height="61" xlink:href="29372C4F.png"  transform="matrix(1 0 0 1 45 156)">
		</image>
		<g display="inline">
			<g>
				<path fill="#FFFFFF" d="M101.135,182.881l-0.306,1.314l0.122,1.498c-0.061,0.773-0.295,1.355-0.703,1.742l-0.488,0.642
					l-1.254,0.306c-0.122,0.122-0.244,0.418-0.366,0.887l0.122,0.122h0.306l-0.184-0.397l0.612,0.459l-0.307,0.428l-0.184,0.764
					l-0.489,0.795l-0.702,1.008l-2.384,1.498l-1.192,1.895l-1.039,0.734l-2.078,2.2c-0.53,0.468-0.989,0.754-1.376,0.855
					l-2.261,0.765l-0.55,0.244c0,0.387-0.102,0.683-0.305,0.887l-0.642,0.244l-3.576,1.742l-2.17,1.406
					c-0.713,0.447-1.406,0.672-2.078,0.672c-0.245,0-0.561-0.102-0.947-0.305c-0.387,0.244-1.172,0.559-2.354,0.945l-1.773,0.551
					l-1.191,0.244l-2.507,0.184l-0.672,0.123l-1.62-0.611c-0.815,0.447-1.589,0.693-2.323,0.732l-0.184-0.244
					c-0.55,0-1.008-0.162-1.375-0.488l-1.131-0.123v0.734c-0.693,0.387-1.406,0.58-2.14,0.58c-0.468,0-0.947-0.061-1.437-0.184
					c-1.711-0.469-2.689-0.703-2.934-0.703c-0.468,0-0.703-0.08-0.703-0.244v-0.184l0.458-0.52l0.734-0.184
					c0.712-0.203,1.13-0.305,1.253-0.305l0.244,0.061l0.52-0.549c0.367-0.408,0.549-0.684,0.549-0.826v-0.947l0.367-1.314
					l0.061-0.611v-0.366l0.397-0.275c-0.306-0.325-0.458-0.702-0.458-1.131l0.153-1.804l0.062-0.824l0.672-0.672
					c-0.245-0.367-0.367-0.643-0.367-0.826l-0.061-0.978l-0.397-0.765l0.092-1.742v-2.139l0.489-1.01
					c0.082-0.325,0.123-0.549,0.123-0.672c0-0.346-0.234-0.682-0.703-1.009l-0.061-1.191v-0.55c0-0.244,0.214-0.52,0.642-0.825
					l0.062-1.681h-0.764l-0.183-0.643l0.122-1.619l-0.306-2.385l0.244-0.672l-0.428-0.887l-0.061-2.995l-0.825-0.948l0.703-1.375
					l0.061-0.458l-0.183-1.741l-0.062-1.01c-0.448-0.061-0.866-0.184-1.253-0.367l-0.825-0.305v-0.887l1.069-0.428h2.384l1.314-0.58
					c0.387-0.164,0.927-0.244,1.62-0.244l2.017-0.062l1.101,0.367l0.764-0.244l0.55,0.336h1.008l1.192,0.061l1.131,0.123h0.062
					l1.008-0.184l2.048,0.672l2.445,0.062l0.825,0.365l3.423,0.398l2.078,0.611l2.445,0.428l1.681,0.58l0.703,0.244l-0.122,0.643
					l0.367,0.367l-0.245,0.366l0.123,0.122L86.25,170.9l0.183-0.061l1.07-0.367l0.855-0.244l0.764,0.244l1.131,0.306l0.672,0.458
					l0.062,0.673l0.274,0.062l1.162-0.062c0.387,0,0.825,0.356,1.313,1.069h0.458c0.53,0,1.325,0.378,2.384,1.131
					c1.142,0.775,2.1,1.691,2.874,2.752l-0.458,0.427l0.091,0.458l0.367,0.612l0.61,0.428c0.205,0.245,0.397,0.713,0.581,1.405
					c-0.388,0.164-0.581,0.367-0.581,0.611c0,0.123,0.021,0.204,0.062,0.245l0.885,1.314
					C101.094,182.525,101.135,182.697,101.135,182.881z M95.572,182.239c-0.387-0.162-0.632-0.32-0.734-0.474
					c-0.102-0.152-0.173-0.433-0.214-0.84l-0.245-0.062v-0.366c0-0.205-0.122-0.52-0.367-0.948l-0.581-0.947l0.061-0.306
					l-0.611-0.551l-1.498-1.131c-0.163-0.102-0.326-0.233-0.489-0.396s-0.352-0.383-0.565-0.657
					c-0.214-0.274-0.453-0.575-0.718-0.901H88.94c-0.51,0-0.927-0.041-1.253-0.122l-2.934-1.56l-1.314-0.244l-0.825-0.366
					l-0.703-0.153l-0.122-0.672c-0.55-0.123-0.876-0.184-0.978-0.184c-0.204,0-0.458,0.123-0.764,0.367
					c-0.652-0.348-1.171-0.551-1.559-0.611c-0.428-0.082-0.729-0.139-0.901-0.168c-0.174-0.031-0.306-0.082-0.397-0.153
					s-0.209-0.179-0.352-0.321l-0.489-0.488c-0.449,0.244-0.886,0.367-1.314,0.367c-0.53,0-0.948-0.123-1.253-0.367l-0.734-0.52
					l-1.895-0.307l-4.371-0.55l-2.139,0.184l-0.428-0.244l-0.306,0.244l-0.336,0.611l-0.672-0.306l-0.123,0.887
					c-0.041,0.876-0.153,1.537-0.336,1.986l0.152,0.642c0.286,0.978,0.428,1.538,0.428,1.681l-0.062,0.551l-0.367-0.245H62.38
					c0.041,0.815,0.214,1.468,0.52,1.956v0.855l-0.398-0.061c-0.203,0.184-0.387,0.275-0.55,0.275h-0.306l-0.122,0.611l0.428,0.55
					c0.428,0.163,0.713,0.311,0.856,0.443c0.143,0.132,0.214,0.341,0.214,0.626c-0.428,0.184-0.642,0.398-0.642,0.643
					c0,0.162,0.021,0.265,0.062,0.305l0.642,1.498L62.9,187.74l0.244,0.765l-0.306,1.56l0.245,0.244l-0.123,1.131l0.123,1.681
					c0,0.428-0.072,0.724-0.214,0.886c-0.143,0.164-0.469,0.398-0.978,0.703l0.122,0.918l1.07,0.641v0.734l-0.123,3.697
					c0.041,0.184,0.107,0.459,0.199,0.826c0.092,0.366,0.189,0.723,0.291,1.069c0.123,0.245,0.183,0.469,0.183,0.673
					c0,0.102-0.081,0.315-0.244,0.642h-0.55c-0.408,0-0.744,0.336-1.009,1.009c1.345,0.244,2.344,0.367,2.996,0.367l4.064-0.062
					l1.437,0.123l4.584-1.314l0.703-0.061l3.423-1.314l2.322-0.947l0.948-0.367l0.672-0.581l2.262-0.855l1.742-1.712l0.703-0.305
					l0.367-0.429l0.367-1.13l1.253-0.703l0.703-1.04l1.314-1.528l0.245-0.733c0.632,0,1.039-0.04,1.222-0.122
					c0.184-0.081,0.275-0.234,0.275-0.459c0-0.285-0.265-0.488-0.794-0.61c0.652-0.652,1.136-1.411,1.451-2.277
					c0.316-0.866,0.556-2.022,0.719-3.469C94.93,184.287,95.185,183.238,95.572,182.239z"/>
			</g>
		</g>
	</g>
	<g id="Rune">
		<image overflow="visible" width="73" height="71" xlink:href="29372C48.png"  transform="matrix(1 0 0 1 109 108)">
		</image>
		<g>
			<g>
				<path fill="#FFFFFF" d="M140.369,117.855c5.914-0.493,11.809,0.812,17.686,3.915l2.08-0.521
					c3.486-3.759,7.565-4.106,12.238-1.04c-0.785,0-1.743-0.091-2.875-0.274c-0.931-0.036-1.88,0.055-2.847,0.274
					c-1.479,1.095-3.121,2.738-4.929,4.928l-0.794,0.274l-0.246,0.767c-0.256,0.037-0.438,0.21-0.548,0.52
					c-0.237,0.037-0.401,0.21-0.492,0.52c-0.694,0.146-1.306,0.584-1.834,1.314l-1.561,0.246l-0.274,0.521
					c-1.734,0.183-3.55-0.073-5.448-0.767c0.036-0.182-0.046-0.356-0.247-0.521c-0.019-0.273,0.064-0.538,0.247-0.794
					c1.934,0.475,3.586-0.127,4.956-1.807c1.533-1.661,0.4-2.792-3.396-3.395c-10.458-2.665-18.955,0.63-25.488,9.883
					c-3.212,5.129-4.171,11.024-2.875,17.686c-0.037-4.453,1.269-8.788,3.915-13.004c8.012-9.947,17.375-10.64,28.089-2.081
					c0.62,0.913,1.231,2.044,1.834,3.395l0.493,0.247c-0.109,0.274-0.109,0.539,0,0.794l0.273,0.247
					c1.953,8.487-1.077,14.646-9.089,18.479c-2.829,1.442-5.95,1.442-9.363,0c-3.468-0.985-5.549-3.413-6.242-7.282
					c0.438,0.566,0.949,1.342,1.533,2.327c4.672,5.768,10.568,6.461,17.686,2.081c0.384-0.676,0.913-1.451,1.588-2.327
					c3.632-6.534,2.592-12.521-3.12-17.96c-7.447-3.924-14.475-2.884-21.082,3.121l0.274,0.52h-0.794
					c-4.727,7.21-4.727,14.93,0,23.162c6.735,6.533,14.538,8.268,23.408,5.201c8.358-2.938,14.081-9.18,17.165-18.726
					c-0.748,6.663-4.134,12.12-10.157,16.372l-0.767,1.314c-7.337,4.381-15.313,5.247-23.927,2.601
					c-11.28-4.197-17.001-12.611-17.166-25.242C119.261,129.883,126.625,121.561,140.369,117.855z"/>
			</g>
		</g>
	</g>
</g>
<g>
	<image overflow="visible" width="213" height="69" xlink:href="29372C46.png"  transform="matrix(1 0 0 1 39 43)">
	</image>
	<g>
		<g>
			<path fill="#FFFFFF" d="M84.188,65.945l-0.234,1.008l0.094,1.148c-0.047,0.594-0.227,1.039-0.539,1.336l-0.375,0.492
				l-0.961,0.234c-0.094,0.094-0.188,0.32-0.281,0.68l0.094,0.094h0.234l-0.141-0.305l0.469,0.352l-0.234,0.328l-0.141,0.586
				l-0.375,0.609l-0.539,0.773L79.43,74.43l-0.914,1.453l-0.797,0.562l-1.594,1.688c-0.406,0.359-0.758,0.578-1.055,0.656
				l-1.734,0.586l-0.422,0.188c0,0.297-0.078,0.523-0.234,0.68l-0.492,0.188l-2.742,1.336l-1.664,1.078
				c-0.547,0.344-1.078,0.516-1.594,0.516c-0.188,0-0.43-0.078-0.727-0.234c-0.297,0.188-0.898,0.43-1.805,0.727l-1.359,0.422
				l-0.914,0.188l-1.922,0.141l-0.516,0.094l-1.242-0.469c-0.625,0.344-1.219,0.531-1.781,0.562l-0.141-0.188
				c-0.422,0-0.773-0.125-1.055-0.375l-0.867-0.094v0.562c-0.531,0.297-1.078,0.445-1.641,0.445c-0.359,0-0.727-0.047-1.102-0.141
				c-1.312-0.359-2.062-0.539-2.25-0.539c-0.359,0-0.539-0.062-0.539-0.188v-0.141l0.352-0.398l0.562-0.141
				c0.547-0.156,0.867-0.234,0.961-0.234l0.188,0.047l0.398-0.422c0.281-0.312,0.422-0.523,0.422-0.633v-0.727l0.281-1.008
				l0.047-0.469v-0.281l0.305-0.211c-0.234-0.25-0.352-0.539-0.352-0.867l0.117-1.383l0.047-0.633l0.516-0.516
				c-0.188-0.281-0.281-0.492-0.281-0.633l-0.047-0.75l-0.305-0.586l0.07-1.336v-1.641l0.375-0.773
				c0.062-0.25,0.094-0.422,0.094-0.516c0-0.266-0.18-0.523-0.539-0.773l-0.047-0.914v-0.422c0-0.188,0.164-0.398,0.492-0.633
				l0.047-1.289h-0.586L51.305,65.5l0.094-1.242l-0.234-1.828l0.188-0.516l-0.328-0.68l-0.047-2.297l-0.633-0.727l0.539-1.055
				l0.047-0.352l-0.141-1.336l-0.047-0.773c-0.344-0.047-0.664-0.141-0.961-0.281l-0.633-0.234V53.5l0.82-0.328h1.828l1.008-0.445
				c0.297-0.125,0.711-0.188,1.242-0.188l1.547-0.047l0.844,0.281l0.586-0.188l0.422,0.258h0.773l0.914,0.047L60,52.984h0.047
				l0.773-0.141l1.57,0.516l1.875,0.047l0.633,0.281l2.625,0.305l1.594,0.469l1.875,0.328l1.289,0.445l0.539,0.188l-0.094,0.492
				l0.281,0.281l-0.188,0.281l0.094,0.094l-0.141,0.188l0.141-0.047l0.82-0.281l0.656-0.188l0.586,0.188l0.867,0.234l0.516,0.352
				l0.047,0.516l0.211,0.047l0.891-0.047c0.297,0,0.633,0.273,1.008,0.82h0.352c0.406,0,1.016,0.289,1.828,0.867
				c0.875,0.594,1.609,1.297,2.203,2.109l-0.352,0.328l0.07,0.352l0.281,0.469l0.469,0.328c0.156,0.188,0.305,0.547,0.445,1.078
				c-0.297,0.125-0.445,0.281-0.445,0.469c0,0.094,0.016,0.156,0.047,0.188l0.68,1.008C84.157,65.672,84.188,65.805,84.188,65.945z
				 M79.922,65.453c-0.297-0.125-0.484-0.246-0.562-0.363s-0.133-0.332-0.164-0.645l-0.188-0.047v-0.281
				c0-0.156-0.094-0.398-0.281-0.727l-0.445-0.727l0.047-0.234l-0.469-0.422l-1.148-0.867c-0.125-0.078-0.25-0.18-0.375-0.305
				s-0.27-0.293-0.434-0.504s-0.348-0.441-0.551-0.691h-0.516c-0.391,0-0.711-0.031-0.961-0.094l-2.25-1.195l-1.008-0.188
				l-0.633-0.281l-0.539-0.117l-0.094-0.516c-0.422-0.094-0.672-0.141-0.75-0.141c-0.156,0-0.352,0.094-0.586,0.281
				c-0.5-0.266-0.898-0.422-1.195-0.469c-0.328-0.062-0.559-0.105-0.691-0.129s-0.234-0.062-0.305-0.117s-0.16-0.137-0.27-0.246
				l-0.375-0.375c-0.344,0.188-0.68,0.281-1.008,0.281c-0.406,0-0.727-0.094-0.961-0.281l-0.562-0.398l-1.453-0.234L57.844,55
				l-1.641,0.141l-0.328-0.188l-0.234,0.188l-0.258,0.469l-0.516-0.234l-0.094,0.68c-0.031,0.672-0.117,1.18-0.258,1.523
				l0.117,0.492c0.219,0.75,0.328,1.18,0.328,1.289l-0.047,0.422l-0.281-0.188h-0.164c0.031,0.625,0.164,1.125,0.398,1.5v0.656
				l-0.305-0.047c-0.156,0.141-0.297,0.211-0.422,0.211h-0.234l-0.094,0.469l0.328,0.422c0.328,0.125,0.547,0.238,0.656,0.34
				s0.164,0.262,0.164,0.48c-0.328,0.141-0.492,0.305-0.492,0.492c0,0.125,0.016,0.203,0.047,0.234l0.492,1.148l-0.141,4.172
				l0.188,0.586l-0.234,1.195l0.188,0.188l-0.094,0.867l0.094,1.289c0,0.328-0.055,0.555-0.164,0.68s-0.359,0.305-0.75,0.539
				l0.094,0.703l0.82,0.492v0.562l-0.094,2.836c0.031,0.141,0.082,0.352,0.152,0.633s0.145,0.555,0.223,0.82
				c0.094,0.188,0.141,0.359,0.141,0.516c0,0.078-0.062,0.242-0.188,0.492h-0.422c-0.312,0-0.57,0.258-0.773,0.773
				c1.031,0.188,1.797,0.281,2.297,0.281l3.117-0.047l1.102,0.094l3.516-1.008l0.539-0.047l2.625-1.008l1.781-0.727l0.727-0.281
				l0.516-0.445L72,79l1.336-1.312l0.539-0.234l0.281-0.328l0.281-0.867l0.961-0.539l0.539-0.797l1.008-1.172l0.188-0.562
				c0.484,0,0.797-0.031,0.938-0.094s0.211-0.18,0.211-0.352c0-0.219-0.203-0.375-0.609-0.469c0.5-0.5,0.871-1.082,1.113-1.746
				s0.426-1.551,0.551-2.66C79.43,67.023,79.625,66.219,79.922,65.453z"/>
			<path fill="#FFFFFF" d="M109.969,82.891c-0.109,0.406-0.344,0.688-0.703,0.844l-2.695,1.172
				c-0.484-0.281-0.727-0.734-0.727-1.359l0.047-1.336l-0.422-0.094l-1.547,0.727l-2.156,1.055l-0.867,0.422l-2.836,0.539
				l-0.914,0.281h-0.234c-0.156,0-0.266-0.016-0.328-0.047l-0.867-0.352l-1.055,0.305l-0.961-0.82l-1.875,0.281
				c-0.188-0.078-0.461-0.219-0.82-0.422s-0.664-0.43-0.914-0.68c-0.703-0.781-1.055-1.578-1.055-2.391
				c0-0.25,0.164-0.508,0.492-0.773l-0.773-0.281l-0.047-0.914l-0.047-1.266c0-0.375,0.062-0.688,0.188-0.938l0.445-0.82
				l-0.445-1.312l0.047-1.383l-0.047-1.594c0.016-0.094,0.18-0.633,0.492-1.617v-0.352l-0.445,0.211l-0.281-0.305v-0.469
				l0.047-2.836c0-0.438-0.047-0.773-0.141-1.008l-0.188-0.281c0-0.031-0.004-0.059-0.012-0.082s-0.02-0.043-0.035-0.059
				c0-0.266,0.188-0.508,0.562-0.727l0.281-0.141l1.734-0.727c0.562-0.219,0.945-0.328,1.148-0.328c0.234,0,0.445,0.219,0.633,0.656
				l0.234,0.539c-0.312,0.875-0.469,1.688-0.469,2.438l0.141,1.359l-0.047,0.562l-0.398,1.148c-0.016,0.422-0.031,0.715-0.047,0.879
				s-0.031,0.309-0.047,0.434c0,0.234,0.047,0.469,0.141,0.703l0.398,0.68l-0.539,1.781l0.188,0.562l-0.188,1.008l-0.188,1.359
				c0,0.125,0.016,0.219,0.047,0.281l0.328,0.586l0.164,2.484c0.094,0.453,0.293,0.773,0.598,0.961s0.934,0.43,1.887,0.727
				l1.734,0.469c0.312,0.062,0.836,0.094,1.57,0.094c0.531,0,0.922-0.047,1.172-0.141l1.336-0.516l1.43,0.375
				c0.25-0.078,0.414-0.336,0.492-0.773l0.773-0.422l1.055-1.453l0.867-0.703c0.234-0.312,0.375-0.75,0.422-1.312l0.188-2.391
				l0.188-0.516l-0.516-0.539l0.047-0.867l0.094-3.703l-0.141-1.242l-0.234-1.43c0-0.234,0.141-0.492,0.422-0.773l-0.094-0.422
				l-0.375-0.047l-0.117-0.727v-0.188l0.211-0.727v-0.492l0.375,0.117l2.602-0.914c0.016,0,0.031-0.008,0.047-0.023
				s0.031-0.023,0.047-0.023c0.172,0,0.316,0.145,0.434,0.434s0.176,0.668,0.176,1.137l-0.188,4.758l-0.328,3.656l-0.633-0.258
				c-0.188,0.438-0.281,0.742-0.281,0.914l0.141,0.492c0.188-0.062,0.328-0.094,0.422-0.094c0.141,0,0.258,0.039,0.352,0.117
				s0.141,0.18,0.141,0.305l-0.234,4.406l0.469,0.82l0.234,2.273c0.078,0.094,0.184,0.215,0.316,0.363
				S109.766,82.578,109.969,82.891z"/>
			<path fill="#FFFFFF" d="M136.383,82.727l-0.234,0.68l-3.234,1.547c-0.438-0.562-0.656-0.914-0.656-1.055v-0.117l0.562-2.25
				l0.047-1.008l0.188,0.047l0.398-0.469c-0.109-0.25-0.215-0.414-0.316-0.492s-0.285-0.172-0.551-0.281l-0.094-0.375l0.375-4.383
				l-0.234-0.609l0.047-0.773v-1.781l0.281-0.867l-0.422-0.422l0.047-1.406c-0.172-0.516-0.461-1.008-0.867-1.477V67
				c0-0.203-0.062-0.352-0.188-0.445l-0.586-0.047l-1.195-0.727l-1.922,0.117l-2.203-0.164c-0.188,0.094-0.398,0.289-0.633,0.586
				l-0.422-0.094l-1.828,0.328l-0.656,0.141l-0.82,0.633l-1.055,0.469c-0.516,0.25-0.805,0.625-0.867,1.125l-0.047,2.297
				l-0.305,1.43l0.492,1.406v0.75l-0.047,2.789l-0.445,0.961l-0.047,0.352v0.141l0.445,0.75l0.141,2.555l0.188,0.82
				c0,0.094-0.047,0.215-0.141,0.363s-0.219,0.254-0.375,0.316l-1.547,0.375l-0.422,0.094c-0.25,0.422-0.492,0.633-0.727,0.633
				c-0.156,0-0.32-0.086-0.492-0.258c-0.016-0.031-0.035-0.062-0.059-0.094s-0.051-0.062-0.082-0.094
				c-0.062-0.125-0.094-0.172-0.094-0.141l0.352-1.734l-0.047-1.969l0.234-0.797l-0.188-1.312l0.094-1.43l0.047-3.023
				c0-0.406,0.273-0.633,0.82-0.68c-0.047-0.344-0.129-0.559-0.246-0.645s-0.371-0.129-0.762-0.129l0.047-4.219l0.516-0.328
				l-0.281-0.492l-0.633-1.711l-0.422-0.539l0.281-0.516l0.492-0.586l0.844-0.375l0.82-0.633c0.234-0.188,0.523-0.281,0.867-0.281
				c0.203,0,0.398,0.059,0.586,0.176s0.297,0.246,0.328,0.387l0.047,2.203l0.094,0.727l0.445-0.141
				c0.562-0.688,1.223-1.332,1.98-1.934s1.324-0.902,1.699-0.902c0.203,0,0.367,0.164,0.492,0.492
				c0.312-0.094,0.68-0.273,1.102-0.539c0.453-0.25,0.836-0.375,1.148-0.375h0.141l1.922,0.188l0.727-0.234l2.156,0.281
				c0.734,0.094,1.312,0.352,1.734,0.773l0.328-0.047c0.5,0,0.914,0.219,1.242,0.656l0.352,0.586l0.469,0.773
				c0.219,0.266,0.328,0.836,0.328,1.711v1.312l0.094,0.562l-0.562,0.727l0.188,0.586l0.281,0.516v0.539v0.422
				c0,0.125-0.016,0.219-0.047,0.281l-0.328,0.68c-0.062,0.125-0.094,0.352-0.094,0.68l0.469,0.609l-0.047,0.68l-0.047,1.641v0.188
				l0.352,0.914l0.047,2.109L136.383,82.727z"/>
			<path fill="#FFFFFF" d="M167.907,90.461c0,0.703-0.383,1.891-1.148,3.562l-0.141,0.469c-0.266,0.172-0.43,0.312-0.492,0.422
				s-0.281,0.469-0.656,1.078l-0.586,0.914l-0.328,0.047l-0.586,0.562l-0.867,0.539c-0.109,0.078-0.312,0.312-0.609,0.703
				l-4.664,2.273l-0.445,0.047l-1.289,0.516l-2.883,0.352l-2.11,0.609l-2.484-0.047l-0.539,0.094l-0.516-0.281l-0.445,0.094h-1.242
				l-0.961,0.094l-1.688-0.82l-1.969-0.328l-1.805-1.336l-1.219-0.586c-0.266-0.25-0.516-0.691-0.75-1.324s-0.352-1.199-0.352-1.699
				c0-0.25,0.195-0.797,0.586-1.641l0.234-0.516l0.375-0.328l0.586-0.211l1.195-1.242l1.828-0.727l0.492-0.281
				c0.125,0,0.234,0.055,0.328,0.164s0.141,0.25,0.141,0.422c0,0.125-0.031,0.203-0.094,0.234l-1.5,1.383l-0.234,0.539l-0.234,0.633
				l-0.094,0.375l0.094,0.633c-0.391,0.281-0.586,0.484-0.586,0.609c0,0.078,0.117,0.258,0.352,0.539l0.141-0.094l0.516,0.281
				c0.219,0.438,0.367,0.695,0.445,0.773l2.062,1.289l0.422,0.633l0.82,0.281c0.438,0.125,0.789,0.188,1.055,0.188h0.141
				l1.055-0.094l1.547,0.281l0.727-0.141l3.399,0.047l1.148-0.281l2.977-0.68l2.016-0.773l0.961-0.047l0.492-0.375l0.281-0.422
				l0.727-0.445l1.242-0.867l0.469-0.188v-0.422c0.547-0.281,0.82-0.57,0.82-0.867v-0.094l-0.188-0.773l0.633-2.461l0.047-0.516
				L164.063,91l-0.141-0.492l-0.961-1.969l-0.094-0.609c-0.156-0.328-0.781-0.648-1.875-0.961l-0.469-0.164l-1.125-0.281
				l-1.242,0.047l-0.82-0.188l-1.969,0.047l-1.148-0.516l-1.008,0.469c-0.344,0.219-0.821,0.328-1.431,0.328h-1.687h-0.82
				c-0.641-0.281-1.055-0.422-1.242-0.422l-0.188,0.094l-0.914,0.586l-0.188,0.094c-0.391,0-1.242-0.258-2.555-0.773
				c-0.578-0.234-1.188-0.602-1.828-1.102l-0.188-0.539c-0.219-0.562-0.328-1.102-0.328-1.617c0-0.469,0.156-0.836,0.469-1.102
				l1.406-1.266l0.469-0.422l0.727-0.375l0.773-0.445l0.867-0.094c0.391-0.094,0.773-0.383,1.148-0.867h-0.445l-0.609,0.047
				l-0.82,0.047c-0.328,0-0.773-0.141-1.336-0.422L144,77.898l-0.328-0.492l-0.141-0.516c-0.016-0.172-0.137-0.32-0.363-0.445
				s-0.527-0.203-0.902-0.234l-0.328-0.633l-0.422-0.609c-0.109-0.094-0.164-0.273-0.164-0.539v-0.375l0.211-1.008l0.047-1.102
				l0.516-0.961l0.094-1.547c0.016-0.109,0.367-0.539,1.055-1.289l0.539-0.586c0.047-0.047,0.109-0.094,0.188-0.141
				s0.125-0.078,0.141-0.094l0.68-0.328l0.375-0.398c0.562-0.562,0.965-0.93,1.207-1.102s0.559-0.281,0.949-0.328l0.211-0.281
				l0.562-0.117l4.031-0.891l4.173,0.422l1.008-0.68c0.5-0.312,0.906-0.469,1.219-0.469c0.062,0,0.109,0.004,0.141,0.012
				s0.062,0.02,0.094,0.035l1.148,0.188l2.344-0.047c0.312,0.031,0.602,0.211,0.867,0.539c0.422-0.172,0.648-0.305,0.68-0.398
				l0.234-0.727c0.016-0.094,0.242-0.211,0.68-0.352s0.914-0.289,1.43-0.445l0.445-0.164l0.328,0.445
				c-0.078,0.375-0.168,0.66-0.27,0.855s-0.262,0.375-0.48,0.539s-0.5,0.324-0.844,0.48l-0.469,0.234
				c-0.047,0.359-0.113,0.594-0.199,0.703s-0.309,0.289-0.668,0.539l-0.727,0.539c-0.125,0.062-0.312,0.094-0.562,0.094
				l-0.867-0.047l-1.008-0.047l-0.68,0.047h-0.562l-0.047,0.234c0.531,0.281,0.91,0.547,1.137,0.797s0.402,0.594,0.527,1.031
				l0.445,0.281v1.055h-0.305l-0.047,0.305l-0.469,0.188l0.328,0.562c0.125,0.234,0.188,0.414,0.188,0.539
				c0,0.219-0.062,0.391-0.188,0.516l-1.008,1.266l-0.281,0.422l-1.875,1.641l-0.328,0.562c-0.156,0.203-0.594,0.492-1.312,0.867
				l-1.383,0.773c-0.672,0.375-1.875,0.648-3.61,0.82l-0.141,0.281l0.047,0.586c0,0.344-0.109,0.516-0.328,0.516l-1.477,0.234
				l-0.961,0.539l-1.125,0.281c-0.422,0.109-0.805,0.387-1.148,0.832s-0.516,0.855-0.516,1.23l0.047,0.445l1.055,0.914l0.469-0.211
				l2.016,0.258l1.5-0.164l0.867,0.445l0.375,0.047h0.141l0.681-0.586c0.328-0.219,0.727-0.328,1.195-0.328h2.789h0.281l0.586,0.422
				l0.328,0.211c0.219,0,0.43-0.227,0.633-0.68l0.82,0.047c1.094,0.047,1.695,0.109,1.805,0.188l0.773,0.398l1.828,0.562
				l0.727,0.445l-0.047,0.656c0.25,0.078,0.406,0.242,0.469,0.492l0.586-0.047l0.516-0.047c0.359,0,0.617,0.219,0.773,0.656
				l0.141,0.727l0.773,2.789L167.907,90.461z M157.876,72.086l-0.047-0.961v-0.562c0-0.953-0.125-1.516-0.375-1.688l-1.266-1.172
				l-0.609-0.914l-1.828-0.891l-0.68-0.258l-0.609-0.094l-0.821,0.398l-0.586-0.094l-0.679-0.117l-0.328,0.047l-1.102,0.492h-0.727
				l-0.703,0.375l-0.445,0.211l-1.148,1.195c-0.344,0.266-0.559,0.5-0.645,0.703s-0.176,0.625-0.27,1.266l-0.188,1.289l0.094,0.539
				v0.422c0.016,0.203,0.074,0.363,0.176,0.48s0.348,0.293,0.738,0.527l-0.141,0.633c0,0.359,0.094,0.562,0.281,0.609l0.961,0.445
				l1.242,0.961c0.266,0.156,0.594,0.266,0.984,0.328s0.977,0.094,1.758,0.094c0.75,0,1.343-0.094,1.782-0.281l1.781-0.773
				l1.008-0.188l0.656-0.633l1.102-0.82l0.398-1.148L157.876,72.086z"/>
			<path fill="#FFFFFF" d="M188.907,79.516c0,0.203-0.039,0.383-0.117,0.539l-0.469,0.82l-1.102,1.898l-1.008,0.07l-0.633,0.516
				c-0.141,0.141-0.383,0.234-0.727,0.281l-4.219,0.82l-0.656,0.234l-1.5-0.141l-2.156,0.188l-2.438-0.141h-0.68
				c-0.344-0.266-0.555-0.422-0.633-0.469l-2.297-0.82l-0.773-0.727l-1.523-1.055l-1.219-1.617l-0.469-0.398
				c0.188-0.375,0.281-0.711,0.281-1.008c0-0.125-0.031-0.219-0.094-0.281l-0.633-1.008l-0.141-1.336l-0.047-1.078
				c0-0.359,0.086-0.836,0.258-1.43c0.266-0.938,0.484-1.5,0.656-1.688l0.867-1.102l0.445-1.008l1.102-1.055l1.195-1.57l1.055-0.586
				l1.523-1.055l1.008-0.68l0.352-0.234l0.703-0.141l2.133-0.68l1.664-0.188l1.008-0.422l0.492-0.047
				c0.797,0,1.469,0.43,2.016,1.289c0.297-0.031,0.516-0.195,0.656-0.492l0.633,0.539l0.867,0.469l1.969,1.922
				c0.25,0.312,0.441,0.582,0.574,0.809s0.266,0.465,0.398,0.715s0.25,0.523,0.352,0.82s0.254,0.75,0.457,1.359l0.188,0.586
				l-0.234,0.094l-0.914-0.188l-1.008,0.328l-0.773-0.141l-0.867,0.234l-1.641-0.188l-1.57,0.094l-1.641-0.281l-2.672,0.047
				l-1.312-0.047l-3.164,0.422l-1.148-0.047l-1.594,0.469l-0.562,0.117l-0.094,0.562c-0.031,0.391-0.086,0.656-0.164,0.797
				s-0.25,0.305-0.516,0.492l0.047,0.445c0.516,0.391,0.789,0.633,0.82,0.727l0.609,2.391l0.305,0.586
				c-0.156,0.156-0.234,0.297-0.234,0.422c0.016,0.031,0.031,0.062,0.047,0.094l0.891,0.281l0.211,0.586
				c0.156,0.547,0.359,0.883,0.609,1.008l1.266,0.516l0.422,0.914c0.219,0.109,0.57,0.195,1.055,0.258l0.328,0.609l0.727,0.094
				l2.016,0.727l1.688-0.328l4.453-0.727l0.961-0.586l1.5-0.914l1.242-1.617c0.219-0.266,0.477-0.398,0.773-0.398
				C188.634,78.789,188.907,79.031,188.907,79.516z M183.376,68.477c0-0.25-0.289-0.773-0.867-1.57l-1.617-1.172l-0.539-0.562
				l-0.773-0.047l-1.781-0.141l-0.422,0.094l-1.008,0.562l-1.289,0.305l-1.641,0.609l-0.633,0.234l-0.75,1.125
				c-0.469,0.328-0.727,0.531-0.773,0.609l-0.094,0.281l2.883,0.211l0.328-0.047l0.539-0.164l0.516,0.117l1.383,0.281h0.07
				l1.57-0.281l0.492-0.117l0.375,0.539h0.539l2.062-0.422l0.844,0.094C183.181,68.969,183.376,68.789,183.376,68.477z"/>
			<path fill="#FFFFFF" d="M217.29,72.414l-0.516-0.094l0.094,0.539l-0.539,0.375c0.078,0.281,0.145,0.453,0.199,0.516
				s0.199,0.164,0.434,0.305l0.047,0.469c0,1.703-0.656,3.547-1.969,5.531c-0.297,0.438-0.664,0.898-1.102,1.383
				s-0.711,0.805-0.82,0.961l-0.703,0.188l-4.43,2.062l-2.438,0.094l-1.781,0.445l-2.109-0.047l-0.727,0.188l-2.109-0.375
				l-0.867-0.047l-0.469-0.539l-1.312-0.188l-0.609-0.328c-0.531-0.406-0.977-0.746-1.336-1.02s-0.59-0.453-0.691-0.539
				s-0.184-0.176-0.246-0.27l-0.516-1.008l-0.727-0.586l-0.562-1.477l-0.211-0.586l0.258-0.188c0-0.219,0.031-0.367,0.094-0.445
				s0.203-0.156,0.422-0.234l-0.141-0.375l-0.773-0.492v-0.961c0-0.672,0.078-1.336,0.234-1.992s0.43-1.414,0.82-2.273
				c0.609-1.375,1.062-2.156,1.359-2.344l0.961-0.633l0.516-0.914c0.188-0.328,0.414-0.547,0.68-0.656l2.203-1.172l1.242-1.008
				l1.5-0.562l2.625-0.914l2.18-0.188l1.711-0.047c0.969,0,1.453,0.266,1.453,0.797c0.266,0.234,0.438,0.352,0.516,0.352
				c0.234,0,0.492-0.227,0.773-0.68l0.586,0.141l1.523,0.539l0.633,0.516l0.867,0.539l0.867,1.336
				c0.234,0.297,0.695,0.445,1.383,0.445c0.453,0.562,0.758,1.117,0.914,1.664s0.328,1.555,0.516,3.023L217.29,72.414z M213.892,73
				l-0.867-2.695l-0.141-1.195l-0.234-0.445h-0.141c-0.125,0-0.227-0.023-0.305-0.07s-0.172-0.133-0.281-0.258l-1.148-1.43
				l-0.375-0.586l-1.969-0.914c-0.188-0.312-0.348-0.543-0.48-0.691s-0.293-0.223-0.48-0.223c-0.203,0-0.523,0.078-0.961,0.234
				c-0.438-0.188-0.758-0.281-0.961-0.281l-0.68,0.094l-1.148,0.047l-1.594,0.586l-0.375-0.328l-0.281,0.375l-1.594,0.961
				l-2.93,2.531l-0.562,0.492c-0.125,0.797-0.484,1.711-1.078,2.742l-0.328,0.562v0.188c0,0.344-0.055,0.57-0.164,0.68
				s-0.328,0.188-0.656,0.234c-0.062,0.25-0.094,0.367-0.094,0.352c0.016,0.031,0.027,0.059,0.035,0.082s0.012,0.043,0.012,0.059
				l0.727,0.82l0.094,0.516c-0.484,0.406-0.727,0.68-0.727,0.82l0.094,0.281c0.141-0.156,0.273-0.234,0.398-0.234
				c0.141,0,0.234,0.047,0.281,0.141l0.539,1.734l1.195,1.969l-0.141,1.195c0.125,0.125,0.266,0.188,0.422,0.188
				c0.188,0,0.383-0.094,0.586-0.281l0.469,0.141l2.836,1.734l2.883,0.281l1.641,0.234l1.852-0.328l1.219-0.281l1.523-1.547
				l1.102-0.328l0.539-0.586l1.242-2.578l0.633-0.539c0.219-0.219,0.328-0.406,0.328-0.562v-0.117l-0.375-1.102L213.892,73z"/>
			<path fill="#FFFFFF" d="M242.368,82.727l-0.234,0.68l-3.234,1.547c-0.438-0.562-0.656-0.914-0.656-1.055v-0.117l0.562-2.25
				l0.047-1.008l0.188,0.047l0.398-0.469c-0.109-0.25-0.215-0.414-0.316-0.492s-0.285-0.172-0.551-0.281l-0.094-0.375l0.375-4.383
				l-0.234-0.609l0.047-0.773v-1.781l0.281-0.867l-0.422-0.422l0.047-1.406c-0.172-0.516-0.461-1.008-0.867-1.477V67
				c0-0.203-0.062-0.352-0.188-0.445l-0.586-0.047l-1.195-0.727l-1.922,0.117l-2.203-0.164c-0.188,0.094-0.398,0.289-0.633,0.586
				l-0.422-0.094l-1.828,0.328l-0.656,0.141l-0.82,0.633l-1.055,0.469c-0.516,0.25-0.805,0.625-0.867,1.125l-0.047,2.297
				l-0.305,1.43l0.492,1.406v0.75l-0.047,2.789l-0.445,0.961l-0.047,0.352v0.141l0.445,0.75l0.141,2.555l0.188,0.82
				c0,0.094-0.047,0.215-0.141,0.363s-0.219,0.254-0.375,0.316l-1.547,0.375l-0.422,0.094c-0.25,0.422-0.492,0.633-0.727,0.633
				c-0.156,0-0.32-0.086-0.492-0.258c-0.016-0.031-0.035-0.062-0.059-0.094s-0.051-0.062-0.082-0.094
				c-0.062-0.125-0.094-0.172-0.094-0.141l0.352-1.734l-0.047-1.969l0.234-0.797l-0.188-1.312l0.094-1.43l0.047-3.023
				c0-0.406,0.273-0.633,0.82-0.68c-0.047-0.344-0.129-0.559-0.246-0.645s-0.371-0.129-0.762-0.129l0.047-4.219l0.516-0.328
				l-0.281-0.492l-0.633-1.711l-0.422-0.539l0.281-0.516l0.492-0.586l0.844-0.375l0.82-0.633c0.234-0.188,0.523-0.281,0.867-0.281
				c0.203,0,0.398,0.059,0.586,0.176s0.297,0.246,0.328,0.387l0.047,2.203l0.094,0.727l0.445-0.141
				c0.562-0.688,1.223-1.332,1.98-1.934s1.324-0.902,1.699-0.902c0.203,0,0.367,0.164,0.492,0.492
				c0.312-0.094,0.68-0.273,1.102-0.539c0.453-0.25,0.836-0.375,1.148-0.375h0.141l1.922,0.188l0.727-0.234l2.156,0.281
				c0.734,0.094,1.312,0.352,1.734,0.773l0.328-0.047c0.5,0,0.914,0.219,1.242,0.656l0.352,0.586l0.469,0.773
				c0.219,0.266,0.328,0.836,0.328,1.711v1.312l0.094,0.562l-0.562,0.727l0.188,0.586l0.281,0.516v0.539v0.422
				c0,0.125-0.016,0.219-0.047,0.281l-0.328,0.68c-0.062,0.125-0.094,0.352-0.094,0.68l0.469,0.609l-0.047,0.68l-0.047,1.641v0.188
				l0.352,0.914l0.047,2.109L242.368,82.727z"/>
		</g>
	</g>
</g>
<g>
	<image overflow="visible" width="162" height="88" xlink:href="29372C47.png"  transform="matrix(1 0 0 1 69 176)">
	</image>
	<g>
		<g>
			<path fill="#FFFFFF" d="M108.316,228.396l-1.219,1.055l-0.375,0.773l-0.328-0.211l-0.305,0.164l-0.281,0.516l-1.289,0.586
				l-0.094-0.094l-0.539-0.164l-0.047-0.609l0.094-0.586l0.445-0.82l-0.164-0.703l0.117-0.586l0.234-1.383l0.328-1.195l-0.188-1.547
				l-0.047-0.469l0.609-0.445c0.016-0.156,0.023-0.352,0.023-0.586c0-0.453-0.117-0.945-0.352-1.477l0.398-1.242l-0.492-0.445
				l0.281-1.242l-0.234-0.141l0.141-3.938l-0.281-0.234l-0.234-0.961l-0.188,0.188c-0.281,0-0.473,0.023-0.574,0.07
				s-0.246,0.18-0.434,0.398l-0.586,0.633l-0.914-0.375c-0.625,0.188-0.992,0.281-1.102,0.281c0.016,0-0.18-0.031-0.586-0.094
				c-0.422-0.328-0.789-0.492-1.102-0.492c-0.047,0-0.082,0.004-0.105,0.012s-0.051,0.02-0.082,0.035l-2.438,0.211l-2.461-0.305
				l-2.016,0.164l-1.008-0.258l-1.523,0.445l-2.367-0.258l-0.609,0.07l-0.727-0.539l-0.234,0.586l-2.883-0.047
				c-0.391,0.375-0.586,0.727-0.586,1.055l0.281,1.852c0.047,0.172,0.07,0.43,0.07,0.773c0,0.312-0.086,0.617-0.258,0.914
				l0.141,1.453c-0.219,0.141-0.352,0.277-0.398,0.41s-0.07,0.332-0.07,0.598c0.125,0.203,0.352,0.344,0.68,0.422l0.047,1.008v3.07
				v0.141l0.047,0.586c0,0.141-0.102,0.281-0.305,0.422l0.047,0.492l0.352,1.43l0.047,0.492c0,0.688-0.32,1.195-0.961,1.523
				l-1.195,0.586l-1.055,0.609l-0.633,0.305l-0.141-0.211h-0.234c-0.172-0.344-0.258-0.656-0.258-0.938
				c0-0.328,0.039-0.555,0.117-0.68l0.516-1.195l0.234-0.82l0.352-0.141l0.047-0.773l-0.398-0.375
				c0.234-0.438,0.352-0.695,0.352-0.773s-0.117-0.32-0.352-0.727l-0.047-0.422l0.188-3.891l-0.234-1.055
				c0-0.359,0.133-0.633,0.398-0.82l0.328-0.281c0.078-0.078,0.141-0.258,0.188-0.539c-0.484-0.172-0.727-0.461-0.727-0.867v-0.094
				l0.164-1.781l-0.305-0.75v-2.695l-0.094-1.336l0.047-0.727l-0.375,0.047l-0.094,0.094l-0.188-0.633l0.188,0.188l0.094-0.891
				c0.578-0.328,0.867-0.664,0.867-1.008c0-0.484-0.32-0.773-0.961-0.867l-0.352-1.641v-0.375l-0.141-1.875v-1.5l0.586-0.234
				l0.773-0.562l1.242-0.586l0.914-0.375l0.703,0.281c0,0.297,0.102,0.617,0.305,0.961c-0.234,0.25-0.371,0.453-0.41,0.609
				s-0.082,0.547-0.129,1.172l-0.047,0.562l0.445,1.641l0.094,0.961h-0.211l-0.422,1.102l0.328,0.375l-0.094,0.492l-0.234,0.422
				l-0.234,0.492l0.094,0.516l0.188,0.398c0.125,0.25,0.188,0.758,0.188,1.523l0.539,0.141l4.172,0.234l0.633,0.445l1.57,0.188
				l0.492-0.047l0.141-0.234l1.617,0.094l0.211,0.047c0.219-0.188,0.438-0.281,0.656-0.281l0.492,0.047v0.188l0.281,0.188
				l0.539-0.047l2.578-0.047l0.961-0.094l0.867,0.281c0.281-0.406,0.617-0.609,1.008-0.609h0.094l1.195,0.094l2.273-0.211
				l1.336,0.07l0.469-0.117l0.164-0.516l0.422-1.055l-0.094-2.695l0.094-0.562l-0.328-0.539l-0.586-0.586v-1.008l-0.141-1.055
				l0.281-0.516c-0.188-0.641-0.281-1.141-0.281-1.5c0-0.297,0.094-0.469,0.281-0.516l0.633-0.094l0.727-0.539h0.562
				c0.234-0.062,0.539-0.281,0.914-0.656l0.68,0.328l0.234,1.102l0.188,0.633l-0.68,2.484l0.164,1.289l-0.094,0.539h-0.258
				c-0.219,0-0.328,0.156-0.328,0.469c0.078,0.188,0.234,0.336,0.469,0.445l0.445,0.234l0.141,0.633l0.141,0.961l-0.047,0.281
				l-0.375,0.727l0.094,4.266l-0.094,3.656l0.375,0.562c-0.125,0.562-0.188,0.992-0.188,1.289v0.07v0.094v0.281v0.562
				c-0.328,0.344-0.492,0.586-0.492,0.727c0,0.062,0.016,0.094,0.047,0.094l0.633,1.102l-0.141,3.188L108.316,228.396z"/>
			<path fill="#FFFFFF" d="M136.066,225.794c0,0.203-0.039,0.383-0.117,0.539l-0.469,0.82l-1.102,1.898l-1.008,0.07l-0.633,0.516
				c-0.141,0.141-0.383,0.234-0.727,0.281l-4.219,0.82l-0.656,0.234l-1.5-0.141l-2.156,0.188l-2.438-0.141h-0.68
				c-0.344-0.266-0.555-0.422-0.633-0.469l-2.297-0.82l-0.773-0.727l-1.523-1.055l-1.219-1.617l-0.469-0.398
				c0.188-0.375,0.281-0.711,0.281-1.008c0-0.125-0.031-0.219-0.094-0.281l-0.633-1.008l-0.141-1.336l-0.047-1.078
				c0-0.359,0.086-0.836,0.258-1.43c0.266-0.938,0.484-1.5,0.656-1.688l0.867-1.102l0.445-1.008l1.102-1.055l1.195-1.57l1.055-0.586
				l1.523-1.055l1.008-0.68l0.352-0.234l0.703-0.141l2.133-0.68l1.664-0.188l1.008-0.422l0.492-0.047
				c0.797,0,1.469,0.43,2.016,1.289c0.297-0.031,0.516-0.195,0.656-0.492l0.633,0.539l0.867,0.469l1.969,1.922
				c0.25,0.312,0.441,0.582,0.574,0.809s0.266,0.465,0.398,0.715s0.25,0.523,0.352,0.82s0.254,0.75,0.457,1.359l0.188,0.586
				l-0.234,0.094l-0.914-0.188l-1.008,0.328l-0.773-0.141l-0.867,0.234l-1.641-0.188l-1.57,0.094l-1.641-0.281l-2.672,0.047
				l-1.312-0.047l-3.164,0.422l-1.148-0.047l-1.594,0.469l-0.562,0.117l-0.094,0.562c-0.031,0.391-0.086,0.656-0.164,0.797
				s-0.25,0.305-0.516,0.492l0.047,0.445c0.516,0.391,0.789,0.633,0.82,0.727l0.609,2.391l0.305,0.586
				c-0.156,0.156-0.234,0.297-0.234,0.422c0.016,0.031,0.031,0.062,0.047,0.094l0.891,0.281l0.211,0.586
				c0.156,0.547,0.359,0.883,0.609,1.008l1.266,0.516l0.422,0.914c0.219,0.109,0.57,0.195,1.055,0.258l0.328,0.609l0.727,0.094
				l2.016,0.727l1.688-0.328l4.453-0.727l0.961-0.586l1.5-0.914l1.242-1.617c0.219-0.266,0.477-0.398,0.773-0.398
				C135.793,225.067,136.066,225.31,136.066,225.794z M130.535,214.755c0-0.25-0.289-0.773-0.867-1.57l-1.617-1.172l-0.539-0.562
				l-0.773-0.047l-1.781-0.141l-0.422,0.094l-1.008,0.562l-1.289,0.305l-1.641,0.609l-0.633,0.234l-0.75,1.125
				c-0.469,0.328-0.727,0.531-0.773,0.609l-0.094,0.281l2.883,0.211l0.328-0.047l0.539-0.164l0.516,0.117l1.383,0.281h0.07
				l1.57-0.281l0.492-0.117l0.375,0.539h0.539l2.062-0.422l0.844,0.094C130.34,215.247,130.535,215.067,130.535,214.755z"/>
			<path fill="#FFFFFF" d="M144.691,226.427l-0.094,1.242l0.047,0.961c0,0.234-0.117,0.43-0.352,0.586l0.141,0.562l-0.516,0.094
				l-1.547,0.961l-0.609,0.094l-0.727,0.445c-0.062,0-0.117,0.004-0.164,0.012s-0.102,0.02-0.164,0.035
				c-0.297,0-0.445-0.094-0.445-0.281v-0.586l-0.141-1.055l0.328-2.555l0.117-3.258c0.047-0.797,0.219-1.453,0.516-1.969
				l-0.281-0.727c-0.266-0.484-0.398-0.766-0.398-0.844c0-0.25,0.195-0.703,0.586-1.359c0.156-0.234,0.234-0.492,0.234-0.773
				c0-0.219-0.234-0.422-0.703-0.609l0.094-0.398l-0.211-0.094v-0.328v-0.375l0.398-1.641v-4.031l0.469-1.875
				c0-0.25-0.188-0.523-0.562-0.82v-1.102l-0.094-4.219c0-0.312,0.203-0.844,0.609-1.594l0.352-0.609
				c-0.578-0.266-0.867-0.508-0.867-0.727c0,0.062,0.047-0.242,0.141-0.914l-0.492-0.422v-0.914l-0.094-1.102v-0.211l0.398-1.195
				l-0.398-1.664l0.094-0.82l-0.469-2.742v-0.234v-0.141l0.188-0.773l0.141-0.961l2.109-1.148l0.961-0.727l0.398-0.094l0.328,0.516
				l0.047,1.008l0.188,0.68l0.047,0.398v0.562l-0.141,1.734v0.141l0.047,0.82c0,0.281-0.031,0.484-0.094,0.609l-0.562,1.219
				l-0.07,0.469c0.312,0.016,0.512,0.066,0.598,0.152s0.129,0.309,0.129,0.668v0.516c0,0.312-0.188,0.57-0.562,0.773v0.586
				l-0.047,0.469v0.188l0.422,0.68l-0.188,4.477v3.211l-0.633,1.242l0.352,1.781l-0.492,1.148c0.047,0.141,0.188,0.32,0.422,0.539
				l0.398,0.422l0.188,7.594l-0.586,0.656c0.047,0.297,0.07,0.617,0.07,0.961c0,0.547-0.07,1.062-0.211,1.547l0.211,0.516h0.656
				v0.867L144.691,226.427z"/>
			<path fill="#FFFFFF" d="M175.793,220.942l-0.469,1.266l-0.234,0.562l-0.68,0.867l-0.492,0.914l-0.609,0.633l-0.445,0.562
				l-0.328,0.094l-0.633-0.141l-0.234,0.445c-0.406,0.734-0.715,1.195-0.926,1.383s-0.59,0.281-1.137,0.281h-0.047l-0.375-0.047
				c-0.062,0.531-0.285,0.98-0.668,1.348s-1.012,0.707-1.887,1.02l-1.289,0.422l-1.055,0.375l-2.109,0.047l-0.586,0.094
				l-0.586,0.398c-0.344-0.188-0.594-0.289-0.75-0.305s-0.656-0.062-1.5-0.141l-0.562-0.047l0.094-0.562l-0.539-0.094l-0.469,0.281
				l-0.398,0.188h-0.656h-1.055l-0.445-0.141l-0.141,0.586l0.094,3.492l-0.328,1.594l-0.047,0.656h0.375l0.141,4.336l-0.562,0.094
				l-0.141,0.375l0.094,0.586l0.281,1.242l-0.141,0.539l0.328-0.258l0.234,0.141l0.047,1.594l0.164,1.547l0.094,1.055
				c0,0.297-0.242,0.469-0.727,0.516l-0.141,0.328l0.82,0.211l-0.047,0.469l0.234,1.148l0.094,0.773l-0.281,0.445l-0.586,0.469
				l-0.469,0.773l-0.586,0.188l-1.242,0.586l-0.398,0.047l-0.867-0.047l-0.047-0.867l0.047-0.773l0.164-1.969l-0.047-1.969
				c0.016-0.203,0.055-0.367,0.117-0.492s0.195-0.266,0.398-0.422l-0.234-1.523c0.297-0.297,0.48-0.508,0.551-0.633
				s0.113-0.336,0.129-0.633c-0.266-0.094-0.441-0.188-0.527-0.281s-0.152-0.234-0.199-0.422l0.188-0.867l-0.094-0.633l-0.047-2.484
				l-0.094-1.875l0.234-2.227l0.047-0.609c0.359-0.344,0.539-0.68,0.539-1.008c0-0.266-0.07-0.68-0.211-1.242l-0.516-0.164
				l-0.234-0.797v-0.352l0.281-7.828l0.281-0.844l-0.094-0.867l-0.094-0.633l-0.422-0.141v-0.633l-0.117-3.445v-0.375l0.164-0.961
				l-0.258-1.969c0-0.547-0.035-0.887-0.105-1.02s-0.301-0.309-0.691-0.527c0.047-0.5,0.141-0.82,0.281-0.961l0.469-0.281
				l1.102-1.242l1.008-0.586l0.586-0.281c0.297,0.031,0.664,0.234,1.102,0.609l-0.094,0.445l-0.094,0.703l0.047,0.398l0.422,0.047
				l0.82-0.445c0.953-0.484,1.652-0.805,2.098-0.961s0.918-0.234,1.418-0.234c0.266,0,0.473,0.035,0.621,0.105
				s0.293,0.184,0.434,0.34l0.422-0.305l0.234-0.281l0.586-0.141l0.961-0.188l2.648,0.047l2.25-0.047
				c0.297,0,0.648,0.242,1.055,0.727c0.062-0.016,0.125-0.031,0.188-0.047s0.109-0.023,0.141-0.023c0.125,0,0.398,0.117,0.82,0.352
				l1.734,0.867c0.312,0.125,0.516,0.266,0.609,0.422l0.398,0.914c0.078,0.125,0.219,0.188,0.422,0.188
				c0.188,0,0.398-0.047,0.633-0.141c0.469,0.359,0.867,0.82,1.195,1.383c0.219,0.391,0.457,1.09,0.715,2.098
				s0.387,1.77,0.387,2.285v0.094l-0.141,0.773l-0.047,0.656L175.793,220.942z M172.77,218.833c-0.578-0.297-0.93-0.648-1.055-1.055
				l-0.375-1.102l-1.195-1.781l-0.117-0.961l-0.328-0.328l-1.242,0.047l-1.875-1.242l-1.336-0.141l-1.266-0.445l-3.398,0.047h-0.539
				l-0.656,0.094l-1.922,0.539l-0.961,0.188l-0.773,0.328l-0.562,0.164c-0.359,0.125-0.539,0.586-0.539,1.383v0.281
				c-0.453,0.969-0.68,1.5-0.68,1.594s0.016,0.156,0.047,0.188l0.117,0.188l0.469,0.188l-0.094,1.172l0.094,2.672
				c0,0.203-0.141,0.555-0.422,1.055c0.344,0.766,0.516,1.422,0.516,1.969l-0.094,2.156l-0.047,0.82l0.68,0.352l1.195,0.516
				l0.961,0.727l0.281-0.398l0.633,0.258l2.016,0.141l1.711,0.68l1.922-0.305l1.219,0.047l0.891-0.375l0.961-0.445l1.172-0.844
				l0.914-0.586l0.844-1.055l1.008-0.727c0.578-0.375,0.898-0.758,0.961-1.148l0.094-0.914l0.586-1.148
				c0.016-0.031,0.027-0.059,0.035-0.082s0.012-0.043,0.012-0.059l-0.094-1.875l-0.047-0.539L172.77,218.833z"/>
			<path fill="#FFFFFF" d="M201.574,225.794c0,0.203-0.039,0.383-0.117,0.539l-0.469,0.82l-1.102,1.898l-1.008,0.07l-0.633,0.516
				c-0.141,0.141-0.383,0.234-0.727,0.281l-4.219,0.82l-0.656,0.234l-1.5-0.141l-2.156,0.188l-2.438-0.141h-0.68
				c-0.344-0.266-0.555-0.422-0.633-0.469l-2.297-0.82l-0.773-0.727l-1.523-1.055l-1.219-1.617l-0.469-0.398
				c0.188-0.375,0.281-0.711,0.281-1.008c0-0.125-0.031-0.219-0.094-0.281l-0.633-1.008l-0.141-1.336l-0.047-1.078
				c0-0.359,0.086-0.836,0.258-1.43c0.266-0.938,0.484-1.5,0.656-1.688l0.867-1.102l0.445-1.008l1.102-1.055l1.195-1.57l1.055-0.586
				l1.523-1.055l1.008-0.68l0.352-0.234l0.703-0.141l2.133-0.68l1.664-0.188l1.008-0.422l0.492-0.047
				c0.797,0,1.469,0.43,2.016,1.289c0.297-0.031,0.516-0.195,0.656-0.492l0.633,0.539l0.867,0.469l1.969,1.922
				c0.25,0.312,0.441,0.582,0.574,0.809s0.266,0.465,0.398,0.715s0.25,0.523,0.352,0.82s0.254,0.75,0.457,1.359l0.188,0.586
				l-0.234,0.094l-0.914-0.188l-1.008,0.328l-0.773-0.141l-0.867,0.234l-1.641-0.188l-1.57,0.094l-1.641-0.281l-2.672,0.047
				l-1.312-0.047l-3.164,0.422l-1.148-0.047l-1.594,0.469l-0.562,0.117l-0.094,0.562c-0.031,0.391-0.086,0.656-0.164,0.797
				s-0.25,0.305-0.516,0.492l0.047,0.445c0.516,0.391,0.789,0.633,0.82,0.727l0.609,2.391l0.305,0.586
				c-0.156,0.156-0.234,0.297-0.234,0.422c0.016,0.031,0.031,0.062,0.047,0.094l0.891,0.281l0.211,0.586
				c0.156,0.547,0.359,0.883,0.609,1.008l1.266,0.516l0.422,0.914c0.219,0.109,0.57,0.195,1.055,0.258l0.328,0.609l0.727,0.094
				l2.016,0.727l1.688-0.328l4.453-0.727l0.961-0.586l1.5-0.914l1.242-1.617c0.219-0.266,0.477-0.398,0.773-0.398
				C201.301,225.067,201.574,225.31,201.574,225.794z M196.043,214.755c0-0.25-0.289-0.773-0.867-1.57l-1.617-1.172l-0.539-0.562
				l-0.773-0.047l-1.781-0.141l-0.422,0.094l-1.008,0.562l-1.289,0.305l-1.641,0.609l-0.633,0.234l-0.75,1.125
				c-0.469,0.328-0.727,0.531-0.773,0.609l-0.094,0.281l2.883,0.211l0.328-0.047l0.539-0.164l0.516,0.117l1.383,0.281h0.07
				l1.57-0.281l0.492-0.117l0.375,0.539h0.539l2.062-0.422l0.844,0.094C195.848,215.247,196.043,215.067,196.043,214.755z"/>
			<path fill="#FFFFFF" d="M221.988,210.958c0,0.078-0.031,0.148-0.094,0.211l-1.336,1.055l-0.727,0.75l-0.422,0.164l-0.633-0.398
				l-0.422-0.422l-1.406-0.047l-1.336-0.539l-0.516-0.141c-0.203,0.344-0.414,0.559-0.633,0.645s-0.664,0.129-1.336,0.129
				l-0.773,0.328l-0.586-0.188l-0.469,0.375l-1.875,1.453c-0.312,0.406-0.492,1.156-0.539,2.25l-0.047,1.781l-0.516,0.328
				c0.312,0.531,0.469,1.047,0.469,1.547h0.352l0.047,0.656l0.094,3.023l0.047,1.594l-0.094,1.43
				c-0.484,0.281-0.727,0.508-0.727,0.68c0,0.031,0.062,0.172,0.188,0.422l0.633-0.141l-0.047,0.211l0.188,0.938v0.117
				c0,0.234-0.125,0.477-0.375,0.727s-0.508,0.391-0.773,0.422l-0.914,0.094l-1.383,0.727l-0.586-0.352l0.094-0.469l0.328-1.359
				l-0.141-1.805l0.141-0.258h0.492v-0.281l-0.047-0.422l-0.281-0.68l-0.07-0.961l-0.188-0.82v-0.047v-0.633l0.047-0.75
				c0.062-0.078,0.129-0.16,0.199-0.246s0.164-0.215,0.281-0.387s0.246-0.383,0.387-0.633l0.234-0.562l-0.047-0.234
				c-0.734,0-1.102-0.164-1.102-0.492l0.094-1.781l-0.141-1.758c0.047-0.156,0.148-0.305,0.305-0.445v-0.68l-0.305-0.281
				l-0.094-0.562l-0.047-1.266l-0.516-1.008c0.109-0.562,0.359-1.039,0.75-1.43l1.453-0.773l0.867-0.562
				c0.438,0.125,0.738,0.273,0.902,0.445s0.246,0.453,0.246,0.844v0.141v0.633c0,0.578,0.125,0.867,0.375,0.867h0.094l1.195-0.633
				l1.172-0.445l2.016-1.102l0.656-0.281l0.539,0.141l1.055-0.328c0.609-0.188,1.07-0.281,1.383-0.281l1.008,0.094
				c0.312,0.438,0.57,0.656,0.773,0.656c0.031-0.016,0.055-0.027,0.07-0.035s0.039-0.012,0.07-0.012l0.539-0.281
				c0.125-0.062,0.219-0.094,0.281-0.094c0.391,0,0.758,0.211,1.102,0.633C221.863,210.458,221.988,210.724,221.988,210.958z"/>
		</g>
	</g>
</g>
</svg>
